<svg width="55" height="68" viewBox="0 0 55 68" fill="none" xmlns="http://www.w3.org/2000/svg">
<path fill-rule="evenodd" clip-rule="evenodd" d="M45.9375 35.9132C45.8583 27.257 52.9305 23.0433 53.2529 22.8493C49.252 16.9269 43.0422 16.121 40.8616 16.0563C35.65 15.5019 30.5942 19.2223 27.9435 19.2223C25.2361 19.2223 21.1372 16.1126 16.737 16.2024C11.0659 16.2946 5.75734 19.6234 2.85029 24.7879C-3.15163 35.3264 1.32411 50.8103 7.07679 59.3335C9.95549 63.5029 13.3173 68.1621 17.7186 67.9957C22.0231 67.8149 23.6296 65.2153 28.8295 65.2153C33.9809 65.2153 35.4905 67.9957 39.9793 67.8915C44.6003 67.8149 47.5073 63.7005 50.2833 59.4892C53.6132 54.7091 54.9468 50.002 55 49.7589C54.8913 49.7218 46.0261 46.2936 45.9375 35.9132Z" fill="black"/>
<path fill-rule="evenodd" clip-rule="evenodd" d="M37.3792 11.1061C39.7519 8.13892 41.3813 4.0967 40.9225 0C37.4894 0.152537 33.1956 2.37521 30.7237 5.28067C28.5338 7.8399 26.5727 12.0347 27.0811 15.9752C30.9452 16.2621 34.9013 14.0261 37.3792 11.1061Z" fill="black"/>
</svg>
