<svg width="76" height="76" viewBox="0 0 76 76" fill="none" xmlns="http://www.w3.org/2000/svg">
<path d="M38.0025 48.1339C43.599 48.1339 48.1358 43.597 48.1358 38.0005C48.1358 32.404 43.599 27.8672 38.0025 27.8672C32.406 27.8672 27.8691 32.404 27.8691 38.0005C27.8691 43.597 32.406 48.1339 38.0025 48.1339Z" fill="#323232"/>
<path d="M28.5007 6.33301L22.7057 12.6663H12.6673C9.18398 12.6663 6.33398 15.5163 6.33398 18.9997V56.9997C6.33398 60.483 9.18398 63.333 12.6673 63.333H63.334C66.8173 63.333 69.6673 60.483 69.6673 56.9997V18.9997C69.6673 15.5163 66.8173 12.6663 63.334 12.6663H53.2957L47.5007 6.33301H28.5007ZM38.0007 53.833C29.2607 53.833 22.1673 46.7397 22.1673 37.9997C22.1673 29.2597 29.2607 22.1663 38.0007 22.1663C46.7407 22.1663 53.834 29.2597 53.834 37.9997C53.834 46.7397 46.7407 53.833 38.0007 53.833Z" fill="#323232"/>
</svg>
