<svg width="95" height="91" viewBox="0 0 95 91" fill="none" xmlns="http://www.w3.org/2000/svg">
<g clip-path="url(#clip0)">
<path fill-rule="evenodd" clip-rule="evenodd" d="M79.2687 9.97108L66.2237 35.6717L48.7061 52.6406L31.2308 35.6786L18.1436 9.97108L48.6429 0L79.2687 9.97108Z" fill="#020421"/>
<path fill-rule="evenodd" clip-rule="evenodd" d="M25.7383 15.7365L45.7102 26.8426V44.1945L31.2305 35.6717L25.7383 15.7365ZM28.6989 10.8624L48.7059 21.5855L68.713 10.8346L48.7059 0.0766602L28.6989 10.8346V10.8624ZM71.6736 15.7365L66.1813 35.6717L51.7017 44.1945V26.8426L71.6736 15.7365Z" fill="url(#paint0_linear)"/>
<path fill-rule="evenodd" clip-rule="evenodd" d="M31.54 18.9604L45.7102 26.8426V38.6797L35.2812 32.5383L31.54 18.9604ZM33.4528 13.39L48.706 21.5855L63.9943 13.383L48.706 5.1875L33.4528 13.383V13.39ZM51.7018 38.6797V26.8426L65.872 18.9604L62.1307 32.5383L51.7018 38.6797Z" fill="url(#paint1_linear)"/>
<path fill-rule="evenodd" clip-rule="evenodd" d="M38.4596 22.8109L45.7099 26.8425V32.0927L40.084 28.7992L38.4385 22.8109H38.4596ZM39.1628 16.4328L48.7409 11.2871L58.2838 16.4328L48.7057 21.5854L39.1276 16.4328H39.1628ZM51.7015 32.0927L57.3274 28.7992L58.9729 22.8109L51.7015 26.8425V32.0927Z" fill="url(#paint2_linear)"/>
<path d="M3.88866 68.238C3.87923 69.3453 3.96155 70.4515 4.13479 71.5454C4.25825 72.3978 4.52445 73.2238 4.92241 73.9894C5.24617 74.6014 5.73247 75.1142 6.32888 75.4726C6.95914 75.8236 7.67354 75.9992 8.39639 75.9809C8.53927 75.9889 8.68249 75.9889 8.82537 75.9809C8.94809 75.9715 9.07018 75.9552 9.19105 75.9321L9.55673 75.8486L10.0138 75.7093C9.95758 76.336 9.90132 76.9627 9.83803 77.5824C9.77473 78.2021 9.71848 78.8218 9.65518 79.4276C9.34576 79.4833 9.02227 79.5251 8.68472 79.5668C8.34835 79.6026 8.01036 79.6212 7.67206 79.6225C6.59224 79.6413 5.52371 79.4025 4.55673 78.9262C3.59013 78.4304 2.75621 77.7145 2.12354 76.8373C1.3909 75.7803 0.857244 74.6008 0.548294 73.3558C0.151665 71.8161 -0.0328483 70.2305 -0.000228853 68.6418C-0.025317 66.9571 0.158906 65.2756 0.548294 63.6354C0.843244 62.3557 1.37236 61.1404 2.10948 60.0494C2.74778 59.1359 3.60575 58.3941 4.60596 57.8909C5.63803 57.4075 6.76973 57.1691 7.91116 57.1946H8.41046C8.56517 57.1946 8.71285 57.1946 8.86053 57.2364L9.34576 57.299L9.90132 57.4035L10.056 61.1287C9.76125 60.9977 9.45532 60.8928 9.14182 60.8154C8.84082 60.7563 8.53445 60.7283 8.22762 60.7318C7.58014 60.7155 6.9407 60.8765 6.37981 61.1972C5.81892 61.5179 5.35838 61.9858 5.049 62.5492C4.29654 63.7538 3.92382 65.6616 3.92382 68.2589L3.88866 68.238ZM14.3739 57.494H18.2839V66.358H21.4977V57.494H25.3162V79.2814H21.4484V69.4704H18.2839V79.2814H14.3739V57.494ZM37.8197 63.0644C37.867 62.3802 37.7312 61.6956 37.4259 61.08C37.3007 60.8746 37.1212 60.707 36.9068 60.5953C36.6924 60.4836 36.4512 60.4321 36.2093 60.4463C35.9696 60.4332 35.7307 60.4853 35.5187 60.597C35.3068 60.7087 35.1297 60.8757 35.0068 61.08C34.6983 61.6946 34.5623 62.38 34.613 63.0644V69.3312H37.8197V63.0644ZM30.7241 62.9043C30.7113 62.0828 30.8422 61.2654 31.1109 60.4881C31.3439 59.8134 31.7204 59.1961 32.215 58.6777C32.6999 58.1808 33.2876 57.7936 33.9379 57.5427C34.6642 57.2751 35.4344 57.1429 36.2093 57.1528C36.9727 57.1448 37.7309 57.277 38.4456 57.5427C39.1018 57.79 39.6949 58.1775 40.1826 58.6777C40.6769 59.1975 41.0555 59.8142 41.2937 60.4881C41.5704 61.2637 41.7061 62.0818 41.6946 62.9043V79.2605H37.8197V72.5202H34.613V79.2605H30.7241V62.9252V62.9043ZM47.0673 57.4731H50.9562V79.2605H47.0673V57.494V57.4731ZM56.35 79.2605V57.494H60.7382C61.6579 57.4828 62.573 57.624 63.4456 57.9118C64.2177 58.1617 64.934 58.5565 65.5553 59.0746C66.1307 59.5714 66.5892 60.187 66.8985 60.878C67.2226 61.6134 67.3856 62.4084 67.3767 63.2107V79.2814H63.4808V63.3638C63.5107 63.0164 63.4633 62.6667 63.3418 62.3395C63.2203 62.0122 63.0276 61.7154 62.7775 61.4699C62.2875 61.0776 61.6703 60.8747 61.0406 60.8989C60.8718 60.8989 60.71 60.8989 60.5553 60.8989C60.4368 60.9043 60.3191 60.9207 60.2037 60.9477V79.2326L56.35 79.2605ZM74.8169 76.1828C75.5843 76.2273 76.3397 75.978 76.9266 75.4865C77.1974 75.2126 77.406 74.8845 77.5382 74.5242C77.6704 74.1639 77.7232 73.7798 77.6932 73.3976C77.6973 72.8486 77.5489 72.309 77.2642 71.8379C76.9597 71.3518 76.6011 70.901 76.1953 70.494C75.7733 70.0553 75.3092 69.6097 74.7888 69.1571C74.2731 68.6957 73.8023 68.1875 73.3823 67.6391C72.9464 67.0615 72.5893 66.4293 72.3204 65.7591C72.0183 64.975 71.8726 64.1403 71.8915 63.3012C71.8872 62.4934 72.0203 61.6907 72.2853 60.9268C72.5375 60.2035 72.9346 59.538 73.4526 58.9702C73.9741 58.3977 74.6147 57.944 75.3303 57.6402C76.1392 57.3007 77.0116 57.1345 77.8901 57.1528H78.8816C79.1559 57.1528 79.409 57.1528 79.6341 57.2085L80.274 57.306L80.9773 57.4244L81.139 61.0173C80.7358 60.8858 80.3248 60.7788 79.9083 60.697C79.4212 60.6093 78.9267 60.5673 78.4315 60.5717C78.0697 60.5434 77.7061 60.5949 77.3668 60.7226C77.0276 60.8502 76.7211 61.0507 76.4695 61.3097C76.0146 61.854 75.7813 62.5468 75.8155 63.2524C75.8052 63.8088 75.9539 64.3567 76.2445 64.833C76.5583 65.3325 76.9313 65.793 77.3556 66.2048C77.7775 66.6365 78.2417 67.0821 78.7621 67.5277C79.2773 67.982 79.7482 68.4832 80.1685 69.0248C80.6045 69.6025 80.9615 70.2346 81.2304 70.9048C81.5298 71.6873 81.6754 72.5192 81.6594 73.3558C81.6686 74.1941 81.5428 75.0286 81.2867 75.8277C81.0514 76.5633 80.6552 77.2385 80.1263 77.8052C79.5578 78.39 78.863 78.8399 78.094 79.1212C77.1396 79.4662 76.1279 79.6292 75.1123 79.6017C74.5579 79.6049 74.0038 79.577 73.4526 79.5181C72.9674 79.4554 72.5033 79.3788 72.0462 79.2814L71.8704 75.7511C72.3527 75.9136 72.8495 76.0302 73.3542 76.0992C73.8529 76.1677 74.3557 76.2026 74.8591 76.2037L74.8169 76.1828ZM88.2276 76.1828C88.9952 76.2288 89.7511 75.9793 90.3373 75.4865C90.6081 75.2126 90.8167 74.8845 90.9489 74.5242C91.0811 74.1639 91.1339 73.7798 91.1038 73.3976C91.108 72.8486 90.9596 72.309 90.6749 71.8379C90.3707 71.3534 90.0147 70.9029 89.613 70.494C89.184 70.0553 88.7269 69.6097 88.2065 69.1571C87.6927 68.6938 87.222 68.1858 86.8 67.6391C86.3641 67.0615 86.007 66.4293 85.7382 65.7591C85.4394 64.9741 85.2938 64.14 85.3092 63.3012C85.3038 62.4928 85.4394 61.6895 85.71 60.9268C85.9571 60.2027 86.3521 59.5366 86.8704 58.9702C87.3931 58.3992 88.0334 57.9457 88.748 57.6402C89.5592 57.3001 90.4341 57.134 91.3148 57.1528H92.2993C92.5736 57.1528 92.8268 57.1528 93.0518 57.2085L93.6988 57.306L94.3598 57.4244L94.5216 61.0173C94.1205 60.8866 93.7119 60.7796 93.2979 60.697C92.8083 60.6096 92.3116 60.5676 91.8141 60.5717C91.4523 60.5434 91.0887 60.5949 90.7494 60.7226C90.4101 60.8502 90.1037 61.0507 89.8521 61.3097C89.3971 61.854 89.1639 62.5468 89.1981 63.2524C89.1878 63.8088 89.3365 64.3567 89.627 64.833C89.9343 65.3314 90.3002 65.7918 90.7171 66.2048C91.139 66.6365 91.6031 67.0821 92.1235 67.5277C92.6407 67.98 93.1118 68.4814 93.53 69.0248C93.966 69.6025 94.323 70.2346 94.5919 70.9048C94.8947 71.6864 95.0404 72.5189 95.0209 73.3558C95.0288 74.1935 94.9055 75.0274 94.6552 75.8277C94.4174 76.5637 94.0188 77.2389 93.4878 77.8052C92.9193 78.39 92.2245 78.8399 91.4555 79.1212C90.5011 79.4662 89.4894 79.6292 88.4737 79.6017C87.9194 79.6049 87.3653 79.577 86.8141 79.5181C86.3289 79.4554 85.8718 79.3788 85.4076 79.2814L85.2248 75.7511C85.7071 75.9136 86.2039 76.0302 86.7086 76.0992C87.212 76.168 87.7195 76.2029 88.2276 76.2037V76.1828Z" fill="black"/>
<path d="M13.9093 85.8125C13.8813 85.9982 13.8414 86.1819 13.7898 86.3626C13.7898 86.3626 13.7898 86.4183 13.7476 86.4183C13.7054 86.4183 13.6984 86.4183 13.6773 86.3556C13.6458 86.2986 13.6016 86.2495 13.5479 86.212C13.4943 86.1746 13.4327 86.1499 13.3679 86.1397C12.9191 86.0699 12.4647 86.0419 12.0106 86.0562C11.9684 86.0562 11.9473 86.0562 11.9473 86.1049C11.9473 86.1537 11.9473 86.7246 11.9473 87.8596C11.9473 88.9946 11.9473 89.5447 11.9473 89.6213C11.9473 90.3176 12.0106 90.6936 12.1372 90.6936H12.7912C12.7912 90.6936 12.7912 90.6936 12.7912 90.7284V90.8607H10.6815H10.6393V90.7353C10.638 90.7296 10.6381 90.7236 10.6398 90.7179C10.6414 90.7122 10.6445 90.707 10.6487 90.7029C10.6529 90.6987 10.6581 90.6956 10.6639 90.694C10.6696 90.6924 10.6757 90.6922 10.6815 90.6936H11.2511C11.3003 90.6936 11.3285 90.6936 11.3285 90.5961C11.3285 90.0669 11.3285 89.7814 11.3285 89.7257C11.3285 89.67 11.3285 89.2592 11.3285 88.4515C11.3285 87.6438 11.3285 87.226 11.3285 87.1912C11.3285 86.4322 11.2792 86.0562 11.1949 86.0562C10.7236 86.039 10.2518 86.074 9.78839 86.1606C9.64524 86.1902 9.51496 86.2632 9.41568 86.3695C9.41568 86.4183 9.35942 86.4391 9.33832 86.4391C9.31722 86.4391 9.28909 86.4391 9.28909 86.4391C9.28124 86.4048 9.28124 86.3691 9.28909 86.3347C9.35942 86.084 9.41567 85.896 9.45787 85.7707C9.45787 85.7707 9.45787 85.7289 9.54226 85.7707L10.3299 85.8125C10.8784 85.8403 11.3214 85.8543 11.659 85.8543H13.5155H13.7054H13.7898C13.825 85.8543 13.839 85.8543 13.839 85.9169L13.9093 85.8125ZM18.1288 90.8676C18.1288 90.8676 18.1288 90.8676 18.0866 90.8676H16.5183H16.4762V90.7562C16.4762 90.7214 16.4762 90.7005 16.5183 90.7005H16.877C16.9122 90.7005 16.9333 90.7005 16.9403 90.61C16.9709 90.3116 16.985 90.0117 16.9825 89.7118C16.9825 89.5029 16.9825 89.287 16.9825 89.0712C16.9825 88.8553 16.9825 88.7578 16.9825 88.7787C17.0073 88.5387 16.9609 88.2967 16.8489 88.0824C16.7781 88.0025 16.6883 87.9415 16.5875 87.905C16.4867 87.8685 16.3783 87.8577 16.2722 87.8735C15.9537 87.8611 15.6384 87.941 15.365 88.1033C15.3508 88.1152 15.3396 88.1302 15.3323 88.1471C15.325 88.164 15.3217 88.1824 15.3228 88.2008V88.9598C15.3228 89.4541 15.3228 89.7187 15.3228 89.7536C15.3228 90.3802 15.3721 90.6936 15.4776 90.6936H15.998L16.0331 90.7284V90.8607C16.0331 90.8607 16.0331 90.8607 15.998 90.8607H14.2469H14.2117V90.7353C14.2117 90.7353 14.2117 90.6866 14.261 90.6866H14.7181C14.7603 90.6866 14.7743 90.6866 14.7743 90.6239V86.4461C14.7743 85.8543 14.7392 85.5618 14.6548 85.5618H14.1414C14.1414 85.5618 14.1414 85.5618 14.1414 85.527V85.4086C14.1414 85.4086 14.1414 85.4086 14.1836 85.4086H14.3454C14.5638 85.3983 14.7806 85.3656 14.9923 85.3111L15.3088 85.1928C15.3088 85.1928 15.365 85.2345 15.365 85.3181C15.365 85.4017 15.365 85.6663 15.3299 86.4183C15.2947 87.1703 15.3299 87.6716 15.3299 87.9014C15.3299 87.971 15.3299 87.9989 15.3721 87.978L15.6393 87.7969C15.7322 87.7295 15.8284 87.6668 15.9276 87.6089C16.1453 87.497 16.3857 87.4351 16.6309 87.4279C16.7418 87.4276 16.8517 87.449 16.9542 87.4908C17.0568 87.5327 17.15 87.5941 17.2286 87.6716C17.3347 87.7811 17.4164 87.9115 17.4685 88.0542C17.5205 88.1969 17.5419 88.3488 17.531 88.5002C17.531 88.5002 17.531 88.7578 17.531 89.1965C17.531 89.6352 17.531 89.8928 17.531 89.9276C17.531 90.4638 17.5662 90.7353 17.6365 90.7353H18.1569C18.1627 90.734 18.1688 90.7342 18.1745 90.7358C18.1802 90.7374 18.1855 90.7405 18.1897 90.7446C18.1939 90.7488 18.197 90.754 18.1986 90.7597C18.2003 90.7654 18.2004 90.7714 18.1991 90.7771V90.9094L18.1288 90.8676ZM21.3918 90.3872C21.3305 90.4499 21.2647 90.5081 21.1949 90.5613C21.0716 90.6388 20.9423 90.7063 20.8081 90.7632C20.5479 90.8813 20.2645 90.9408 19.9783 90.9373C19.782 90.9488 19.5854 90.9194 19.4013 90.851C19.2172 90.7827 19.0496 90.6768 18.9093 90.5404C18.7527 90.3895 18.6289 90.2086 18.5454 90.0086C18.462 89.8086 18.4207 89.5939 18.4241 89.3776C18.4181 89.1444 18.4346 88.9113 18.4733 88.6812C18.5412 88.3477 18.7048 88.0407 18.9445 87.7969C19.0702 87.6714 19.2205 87.5726 19.3862 87.5068C19.5519 87.4409 19.7295 87.4093 19.9079 87.414C20.0624 87.4086 20.216 87.4372 20.358 87.4975C20.5088 87.5818 20.6543 87.6748 20.794 87.7761C20.9979 87.9095 21.1647 88.0915 21.2792 88.3052C21.2883 88.3442 21.2883 88.3847 21.2792 88.4236C21.2792 88.4236 21.2792 88.4724 21.216 88.4863C20.9376 88.5704 20.6531 88.6332 20.365 88.6743C20.0104 88.7485 19.6508 88.7974 19.2891 88.8205H18.9234C18.9234 88.8205 18.8812 88.8832 18.8812 89.0015C18.8734 89.2433 18.9213 89.4837 19.0212 89.7045C19.1211 89.9253 19.2704 90.1206 19.4579 90.2758C19.7541 90.4779 20.1122 90.5714 20.4705 90.5404C20.6702 90.5447 20.8694 90.5188 21.0612 90.4638C21.1466 90.4422 21.226 90.4017 21.2933 90.3454V90.3802L21.3918 90.3872ZM20.6885 88.3679C20.6824 88.3304 20.668 88.2948 20.6463 88.2635C20.5415 88.0817 20.4032 87.9211 20.2385 87.79C20.073 87.6651 19.8699 87.5989 19.6618 87.602C19.5674 87.6103 19.4764 87.6413 19.3967 87.6922C19.3171 87.7432 19.2512 87.8126 19.2047 87.8944C19.1315 87.9977 19.0724 88.1101 19.0289 88.2286C18.9762 88.348 18.943 88.475 18.9304 88.6047C18.9304 88.6464 18.9445 88.6673 18.9726 88.6673L19.6337 88.6116C19.9704 88.5964 20.3037 88.5379 20.6252 88.4375C20.6674 88.4375 20.6885 88.3958 20.6885 88.3679ZM27.2005 89.5586C27.2065 89.7414 27.171 89.9232 27.0968 90.0907C27.0226 90.2581 26.9114 90.407 26.7715 90.5264C26.3985 90.8235 25.9272 90.9724 25.4494 90.9442H24.8587H24.1555H23.5648V90.8119V90.7702H24.0992C24.1625 90.7702 24.1906 90.7284 24.1906 90.6379C24.1906 90.5473 24.1906 90.234 24.1906 89.5029C24.1906 88.7718 24.1906 88.3749 24.1906 88.3052V86.7803C24.1906 86.3138 24.1133 86.084 24.043 86.084H23.4593C23.4593 86.084 23.4593 86.084 23.4593 86.0423V85.9239H23.4944H24.5423H24.9572H25.7448C25.9113 85.9352 26.0762 85.9632 26.2371 86.0074C26.4276 86.0816 26.5966 86.2012 26.7293 86.3556C26.8934 86.5503 26.9786 86.7985 26.9684 87.0519C26.9732 87.2293 26.9371 87.4056 26.8629 87.5672C26.8022 87.6711 26.7315 87.769 26.652 87.8596C26.4962 88.0592 26.2966 88.2211 26.0683 88.3331C26.0191 88.3331 26.0191 88.3818 26.0683 88.3958C26.3526 88.4824 26.6143 88.6298 26.8348 88.8275C26.9576 88.9377 27.0542 89.0736 27.1174 89.2254C27.1807 89.3771 27.209 89.5409 27.2005 89.7048V89.5586ZM26.3918 87.2051C26.3932 87.0435 26.3609 86.8833 26.2967 86.7347C26.2326 86.5861 26.138 86.4523 26.0191 86.3417C25.8994 86.2216 25.7555 86.1279 25.5967 86.0667C25.438 86.0055 25.268 85.9782 25.0978 85.9865C24.9856 85.9748 24.8725 85.9748 24.7603 85.9865C24.7428 85.991 24.7273 86.0008 24.7159 86.0146C24.7045 86.0283 24.6979 86.0454 24.697 86.0631C24.697 86.1119 24.697 86.7595 24.697 88.0198C24.697 88.0685 24.697 88.0894 24.7392 88.0894H25.2174C25.3158 88.0845 25.4143 88.0845 25.5127 88.0894H25.787C25.8192 88.0983 25.8532 88.0983 25.8854 88.0894C26.0388 88.0092 26.1621 87.8822 26.2371 87.7273C26.3287 87.5506 26.3769 87.355 26.3777 87.1563L26.3918 87.2051ZM26.5535 89.6561C26.5591 89.4948 26.5307 89.3341 26.4702 89.1842C26.4097 89.0344 26.3183 88.8987 26.2019 88.7857C26.0283 88.6193 25.8219 88.4902 25.5956 88.4063C25.3694 88.3225 25.1281 88.2857 24.8868 88.2983C24.838 88.2894 24.788 88.2894 24.7392 88.2983C24.7392 88.2983 24.7392 88.2983 24.7392 88.3749V90.0321C24.7392 90.422 24.7814 90.6309 24.8657 90.6587C25.0603 90.7236 25.2654 90.7519 25.4705 90.7423C25.7521 90.7583 26.0298 90.6716 26.2511 90.4986C26.3637 90.3856 26.4508 90.2501 26.5065 90.1013C26.5623 89.9525 26.5855 89.7936 26.5746 89.6352L26.5535 89.6561ZM29.5845 90.8676C29.5845 90.8676 29.5845 90.8676 29.5423 90.8676H27.6435C27.6084 90.8676 27.5943 90.8676 27.5943 90.8676V90.7353C27.5943 90.7005 27.5943 90.6866 27.6365 90.6866H28.2553C28.2667 90.6877 28.2781 90.6863 28.2889 90.6824C28.2996 90.6786 28.3094 90.6725 28.3174 90.6645C28.3255 90.6565 28.3317 90.6469 28.3355 90.6363C28.3394 90.6256 28.3408 90.6143 28.3397 90.603V86.4252C28.3397 85.8612 28.2905 85.5827 28.185 85.5827H27.7209C27.6857 85.5827 27.6717 85.5827 27.6717 85.5409V85.4156V85.3599H27.967C28.157 85.357 28.3459 85.3313 28.5296 85.2833C28.7265 85.2345 28.8109 85.2067 28.7828 85.2067C28.7546 85.2067 28.8531 85.2067 28.8531 85.3181C28.8531 85.4295 28.8531 86.0701 28.8531 87.5532C28.8531 89.0364 28.832 89.8232 28.832 89.8232C28.832 90.3802 28.8742 90.6587 28.9726 90.6587H29.5352C29.5352 90.6587 29.5774 90.6588 29.5774 90.6936V90.8468L29.5845 90.8676ZM33.2272 89.1269C33.2311 89.4269 33.1762 89.7249 33.0655 90.0042C32.9127 90.3051 32.6661 90.5493 32.3622 90.7005C32.116 90.8316 31.8401 90.8987 31.5605 90.8955C31.3221 90.9053 31.0839 90.8723 30.8573 90.798C30.5451 90.6584 30.295 90.4109 30.1541 90.1017C29.9998 89.7896 29.9203 89.4465 29.922 89.099C29.9147 88.7418 30.002 88.3889 30.1752 88.0755C30.3257 87.808 30.5568 87.5938 30.8362 87.4627C31.1295 87.3407 31.4468 87.286 31.7645 87.3026C32.0337 87.2882 32.3016 87.3485 32.538 87.4766C32.795 87.6425 32.99 87.8871 33.0936 88.1729C33.2061 88.4712 33.2609 88.7877 33.2553 89.106L33.2272 89.1269ZM32.6928 89.3079C32.7194 88.8675 32.5846 88.4323 32.313 88.0824C32.1926 87.9342 32.0391 87.8155 31.8647 87.7358C31.6902 87.6561 31.4995 87.6174 31.3074 87.6229C31.1575 87.614 31.0072 87.6329 30.8643 87.6786C30.7866 87.7196 30.7229 87.7826 30.6815 87.8596C30.5101 88.15 30.4317 88.485 30.4565 88.8205C30.45 89.241 30.5314 89.6582 30.6956 90.046C30.7819 90.2705 30.9368 90.4628 31.1386 90.5961C31.3019 90.6937 31.4894 90.7443 31.6801 90.7423C31.8643 90.7522 32.048 90.7163 32.2146 90.6379C32.3887 90.512 32.517 90.3336 32.5802 90.1296C32.6647 89.864 32.7028 89.5861 32.6928 89.3079ZM36.7504 90.2549C36.7504 90.2549 36.6871 90.3593 36.5605 90.4568C36.1894 90.7582 35.7255 90.9252 35.2455 90.9303C35.0155 90.9381 34.7867 90.8928 34.5774 90.798C34.3054 90.6284 34.0863 90.3873 33.9445 90.1017C33.7906 89.8024 33.7156 89.4695 33.7265 89.1338C33.7289 88.8962 33.762 88.6599 33.825 88.4306C33.8979 88.1406 34.0601 87.8802 34.2891 87.6855C34.5868 87.4543 34.9591 87.338 35.3369 87.3583C35.7088 87.3524 36.0678 87.4926 36.3355 87.7482C36.3962 87.7941 36.4468 87.8516 36.4843 87.9175C36.5218 87.9833 36.5453 88.056 36.5535 88.1312C36.5535 88.2495 36.5113 88.3052 36.4129 88.3052C36.3385 88.3001 36.2659 88.2802 36.1994 88.2467C36.133 88.2132 36.074 88.1668 36.0261 88.1103C35.91 88.0047 35.8249 87.87 35.78 87.7204C35.78 87.6577 35.7026 87.6229 35.6112 87.602C35.5128 87.5951 35.4141 87.5951 35.3158 87.602C35.2105 87.5936 35.1047 87.5936 34.9994 87.602C34.8082 87.6337 34.6328 87.7267 34.5001 87.8666C34.2721 88.1683 34.1644 88.5426 34.1977 88.918C34.1922 89.1477 34.2329 89.3761 34.3175 89.5901C34.402 89.8041 34.5286 89.9993 34.6899 90.1644C34.8341 90.3168 35.024 90.4193 35.2314 90.4568C35.4004 90.4903 35.5726 90.5043 35.7448 90.4986C36.0306 90.5057 36.3113 90.4228 36.5465 90.2619L36.659 90.1853H36.7082C36.7316 90.2045 36.7467 90.2319 36.7504 90.2619V90.2549ZM41.1034 90.8259C41.1034 90.8607 41.1034 90.8746 41.1034 90.8746H40.0837C40.0504 90.8695 40.0203 90.8521 39.9994 90.8259C39.89 90.7081 39.7868 90.5849 39.6899 90.4568L39.3664 90.053C39.3289 89.9973 39.1461 89.7652 38.8179 89.3567C38.7757 89.3079 38.7406 89.287 38.7195 89.3079L38.2694 89.6004C38.2694 89.6004 38.2202 89.6561 38.2202 89.7187C38.2202 90.3385 38.2624 90.6518 38.3538 90.6518H38.9304C38.9656 90.6518 38.9797 90.6518 38.9797 90.6866V90.798C38.9797 90.8328 38.9797 90.8468 38.9797 90.8468H37.088H37.0387V90.7284C37.0387 90.7284 37.0387 90.6796 37.0809 90.6796H37.6084C37.6506 90.6796 37.6646 90.6796 37.6646 90.6239V86.4879C37.6646 85.8612 37.6154 85.5479 37.5169 85.5479H37.0598C37.0247 85.5479 37.0106 85.5479 37.0106 85.5479V85.4225C37.0106 85.4225 37.0106 85.3808 37.0598 85.3808H37.3622C37.5474 85.3825 37.732 85.3591 37.9108 85.3111L38.0725 85.2415C38.112 85.222 38.155 85.2102 38.1991 85.2067C38.2413 85.2067 38.2553 85.2485 38.2553 85.332C38.2553 85.4156 38.2553 86.0283 38.2553 87.3304C38.2553 88.6325 38.2553 89.3218 38.2553 89.3427C38.2553 89.3636 38.2553 89.4472 38.3116 89.4263C38.5576 89.2681 38.7925 89.0936 39.0148 88.9041C39.3237 88.6572 39.6128 88.3872 39.8798 88.0963C39.9804 88.0025 40.045 87.877 40.0627 87.7412C40.0627 87.6646 40.0064 87.6229 39.9009 87.6229H39.5071C39.5071 87.6229 39.5071 87.6229 39.5071 87.5811V87.4697V87.4279H40.4705H40.5971H40.6956C40.7307 87.4279 40.7518 87.4627 40.7518 87.5184C40.7473 87.5795 40.7197 87.6367 40.6745 87.6786C40.5072 87.9087 40.3163 88.121 40.1048 88.3122C40.0697 88.3122 39.7884 88.5838 39.2469 89.0085C39.2469 89.0085 39.2469 89.0712 39.2469 89.099C39.2469 89.1269 39.3805 89.2383 39.5774 89.4611L39.9009 89.8371L40.4776 90.4986C40.6112 90.6518 40.7167 90.7284 40.787 90.7284H41.0753C41.0811 90.727 41.0872 90.7272 41.0929 90.7288C41.0987 90.7305 41.1039 90.7335 41.1081 90.7377C41.1123 90.7419 41.1154 90.747 41.1171 90.7527C41.1187 90.7584 41.1189 90.7644 41.1175 90.7702V90.8816L41.1034 90.8259ZM44.4157 90.2549C44.4157 90.2549 44.3524 90.3593 44.2258 90.4568C43.8546 90.7582 43.3907 90.9252 42.9108 90.9303C42.6689 90.9446 42.4272 90.8991 42.2075 90.798C41.9323 90.6323 41.7122 90.3901 41.5746 90.1017C41.4207 89.8024 41.3457 89.4695 41.3566 89.1338C41.3735 88.8951 41.4183 88.6591 41.4902 88.4306C41.5684 88.1411 41.7326 87.8816 41.9614 87.6855C42.2585 87.4532 42.6313 87.3367 43.0092 87.3583C43.381 87.3524 43.7401 87.4926 44.0078 87.7482C44.0685 87.7941 44.1191 87.8516 44.1566 87.9175C44.194 87.9833 44.2176 88.056 44.2258 88.1312C44.2258 88.2495 44.1766 88.3052 44.0852 88.3052C44.0108 88.3001 43.9382 88.2802 43.8717 88.2467C43.8053 88.2132 43.7463 88.1668 43.6984 88.1103C43.5822 88.0047 43.4972 87.87 43.4522 87.7204C43.4522 87.6577 43.3749 87.6229 43.2764 87.602C43.1781 87.5951 43.0794 87.5951 42.9811 87.602C42.8781 87.5933 42.7746 87.5933 42.6717 87.602C42.4805 87.6337 42.3051 87.7267 42.1724 87.8666C41.9419 88.1673 41.8317 88.5417 41.8629 88.918C41.855 89.3814 42.0319 89.8292 42.3552 90.1644C42.5003 90.3156 42.6897 90.4179 42.8967 90.4568C43.068 90.4902 43.2426 90.5042 43.4171 90.4986C43.7024 90.502 43.982 90.4195 44.2188 90.2619L44.3313 90.1853H44.3735C44.3867 90.1939 44.3979 90.2052 44.4063 90.2184C44.4148 90.2316 44.4204 90.2464 44.4227 90.2619L44.4157 90.2549ZM48.6773 90.8468H47.0669H47.0317V90.7353C47.0317 90.7005 47.0317 90.6796 47.0669 90.6796H47.4185C47.4185 90.6796 47.4818 90.6796 47.4888 90.5891C47.5195 90.2907 47.5336 89.9908 47.531 89.6909C47.531 89.482 47.531 89.2661 47.531 89.0503C47.531 88.8344 47.531 88.737 47.531 88.7578C47.5559 88.5178 47.5094 88.2758 47.3974 88.0615C47.3255 87.9831 47.2355 87.9232 47.135 87.8868C47.0346 87.8504 46.9268 87.8387 46.8207 87.8526C46.502 87.8386 46.1863 87.9186 45.9136 88.0824C45.8971 88.0926 45.8838 88.1071 45.8751 88.1243C45.8664 88.1415 45.8627 88.1607 45.8643 88.1799C45.8643 88.1799 45.8643 88.4445 45.8643 88.9389C45.8643 89.4333 45.8643 89.6978 45.8643 89.7327C45.8643 90.3593 45.9136 90.6727 46.0191 90.6727H46.5394C46.5394 90.6727 46.5394 90.6727 46.5394 90.7075V90.8398H44.8025H44.7673V90.7145C44.7673 90.7145 44.7673 90.6657 44.8095 90.6657H45.2736C45.3088 90.6657 45.3299 90.6657 45.3299 90.603V86.4252C45.3299 85.8334 45.2877 85.5409 45.2103 85.5409H44.6899C44.6899 85.5409 44.6899 85.5409 44.6899 85.5061V85.3877C44.6899 85.3877 44.6899 85.3877 44.7251 85.3877H44.8939C45.1124 85.3774 45.3292 85.3447 45.5409 85.2902L45.8503 85.1719C45.8925 85.1719 45.9136 85.2137 45.9136 85.2972C45.9136 85.2972 45.9136 85.6454 45.8784 86.3974C45.8432 87.1494 45.8784 87.6507 45.8784 87.8805C45.8784 87.9501 45.8784 87.978 45.9276 87.9571L46.1949 87.7761C46.2877 87.7086 46.384 87.6459 46.4832 87.5881C46.7009 87.4761 46.9412 87.4142 47.1864 87.407C47.4101 87.408 47.6246 87.4954 47.7842 87.6507C47.8893 87.7606 47.97 87.8912 48.0209 88.0339C48.0718 88.1767 48.0917 88.3284 48.0795 88.4793C48.0795 88.4793 48.0795 88.737 48.0795 89.1756C48.0795 89.6143 48.0795 89.8719 48.0795 89.9067C48.0795 90.4429 48.0795 90.7145 48.185 90.7145H48.7054C48.7054 90.7145 48.7054 90.7145 48.7054 90.7562V90.8885L48.6773 90.8468ZM52.0528 90.6239C52.0551 90.6401 52.0551 90.6565 52.0528 90.6727C51.9555 90.7743 51.8497 90.8674 51.7364 90.9512C51.7134 90.9578 51.689 90.9578 51.666 90.9512C51.4966 90.9411 51.3377 90.8662 51.223 90.7423C51.0892 90.6131 50.9859 90.4562 50.9206 90.2827C50.9206 90.2363 50.8995 90.2363 50.8573 90.2827C50.7962 90.365 50.7253 90.4398 50.6463 90.5056C50.5699 90.5772 50.4876 90.6424 50.4002 90.7005C50.1893 90.833 49.9466 90.9075 49.697 90.9164C49.5464 90.9281 49.3959 90.8915 49.268 90.8119C49.1946 90.7589 49.1361 90.6883 49.0979 90.6066C49.0598 90.525 49.0433 90.4351 49.05 90.3454C49.0529 90.0951 49.1339 89.8519 49.2821 89.6491C49.4201 89.4754 49.602 89.3408 49.8095 89.2592C50.1378 89.119 50.4828 89.0207 50.8362 88.9667C50.8362 88.9667 50.8362 88.9667 50.8362 88.8832C50.8586 88.6214 50.8586 88.3582 50.8362 88.0963C50.8327 88.0363 50.815 87.9779 50.7844 87.9258C50.7539 87.8738 50.7114 87.8297 50.6604 87.7969C50.5297 87.7247 50.3809 87.6909 50.2314 87.6995C50.0432 87.6862 49.8547 87.7197 49.6829 87.7969C49.6196 87.8387 49.5985 87.8805 49.6055 87.9292V88.0337C49.6078 88.1374 49.5784 88.2393 49.5212 88.3261C49.492 88.3877 49.4465 88.4403 49.3895 88.4783C49.3326 88.5163 49.2663 88.5383 49.1977 88.542C49.1133 88.542 49.0641 88.4863 49.0641 88.3679C49.0805 88.2292 49.1422 88.0996 49.2399 87.9989C49.3422 87.8637 49.4685 87.7481 49.6126 87.6577C49.9264 87.4949 50.2784 87.4179 50.6323 87.4349C50.8511 87.4145 51.0696 87.4766 51.2441 87.6089C51.3631 87.7639 51.4161 87.9589 51.3918 88.1521C51.3918 88.347 51.3777 88.6464 51.3496 89.0503C51.3496 89.4541 51.3496 89.677 51.3496 89.7466C51.3425 89.9628 51.4122 90.1747 51.5465 90.3454C51.6626 90.471 51.8147 90.5585 51.9825 90.5961C51.9825 90.5961 52.0387 90.5961 52.0387 90.6379L52.0528 90.6239ZM50.8714 89.2313C50.8714 89.1826 50.8714 89.1617 50.8081 89.1617C50.5791 89.1707 50.3543 89.2251 50.147 89.3218C49.7392 89.5098 49.5282 89.7536 49.5282 90.0669C49.5202 90.1393 49.5287 90.2125 49.5531 90.2811C49.5774 90.3498 49.617 90.4122 49.6688 90.4638C49.7822 90.5338 49.9155 90.5655 50.0486 90.5543C50.3121 90.5491 50.5636 90.4445 50.7518 90.2619C50.7816 90.2379 50.8063 90.2084 50.8244 90.1749C50.8425 90.1414 50.8537 90.1047 50.8573 90.0669C50.8854 89.7652 50.8995 89.4866 50.8995 89.2313H50.8714ZM53.5577 86.0771C53.5556 86.146 53.5382 86.2135 53.5065 86.2749C53.4749 86.3363 53.43 86.39 53.3749 86.4322C53.294 86.5076 53.1901 86.5541 53.0795 86.5645C53.0458 86.5689 53.0116 86.5656 52.9794 86.555C52.9471 86.5445 52.9177 86.5268 52.8934 86.5033C52.869 86.4799 52.8503 86.4513 52.8387 86.4197C52.8271 86.388 52.8229 86.3542 52.8264 86.3208C52.8365 86.1943 52.8927 86.0758 52.9846 85.9874C53.0765 85.899 53.1977 85.8467 53.3257 85.8403C53.4804 85.8403 53.5577 85.9169 53.5577 86.0771ZM54.1836 90.8607C54.1836 90.8607 54.1836 90.8607 54.1414 90.8607H52.3271C52.3271 90.8607 52.3271 90.8607 52.3271 90.8119V90.7005C52.3271 90.6657 52.3271 90.6448 52.3271 90.6448H52.8826C52.8925 90.6449 52.9022 90.6429 52.9113 90.6389C52.9203 90.635 52.9284 90.6293 52.935 90.622C52.9416 90.6148 52.9467 90.6063 52.9498 90.597C52.9528 90.5877 52.9539 90.5779 52.9529 90.5682C52.9529 90.5682 52.9529 90.2479 52.9529 89.6491V88.6604C52.9529 88.2704 52.9529 88.0337 52.9529 87.9641C52.9529 87.7273 52.8615 87.6159 52.749 87.6159H52.3693C52.3271 87.6159 52.313 87.6159 52.313 87.5741V87.4418C52.313 87.407 52.313 87.3931 52.313 87.3931H52.538C52.7771 87.3931 53.0022 87.3931 53.2413 87.3931H53.4663C53.5296 87.3931 53.5577 87.4349 53.5577 87.5115C53.5577 87.5881 53.5577 87.8944 53.5577 88.6395C53.5577 89.3845 53.5226 89.7675 53.5226 89.8023C53.5226 90.4081 53.5859 90.7075 53.7124 90.7075H54.1484V90.7423V90.8885L54.1836 90.8607ZM58.403 90.8607C58.403 90.8955 58.403 90.9094 58.403 90.9094H56.7434H56.7012V90.7771C56.6998 90.7714 56.7 90.7654 56.7016 90.7597C56.7033 90.754 56.7064 90.7488 56.7106 90.7446C56.7148 90.7405 56.72 90.7374 56.7258 90.7358C56.7315 90.7342 56.7376 90.734 56.7434 90.7353H57.1513C57.1675 90.7338 57.1827 90.7267 57.1943 90.7153C57.2058 90.7038 57.213 90.6888 57.2146 90.6727C57.2634 90.0891 57.2821 89.5034 57.2708 88.918C57.3101 88.6294 57.24 88.3367 57.0739 88.0963C56.9068 87.9593 56.6925 87.8919 56.4762 87.9083C56.1773 87.8941 55.8817 87.9746 55.6323 88.1381C55.615 88.148 55.6007 88.1622 55.5908 88.1793C55.581 88.1965 55.5758 88.2159 55.576 88.2356C55.576 88.347 55.576 88.918 55.576 89.9485C55.576 90.4777 55.576 90.7353 55.6956 90.7353H56.216C56.2218 90.734 56.2278 90.7342 56.2336 90.7358C56.2393 90.7374 56.2445 90.7405 56.2488 90.7446C56.253 90.7488 56.2561 90.754 56.2577 90.7597C56.2593 90.7654 56.2595 90.7714 56.2582 90.7771V90.9094C56.2582 90.9094 56.2582 90.9094 56.216 90.9094H54.4508C54.4508 90.9094 54.4508 90.9094 54.4508 90.8676V90.7493V90.7145H54.9361C54.9783 90.7145 54.9923 90.7144 54.9923 90.6448C54.9923 90.5752 54.9923 90.227 54.9923 89.4402C54.9923 88.6534 54.9923 88.2356 54.9923 88.1938C54.9923 87.8178 54.9501 87.6298 54.8728 87.6298H54.4086C54.4086 87.6298 54.3665 87.6298 54.3665 87.5811V87.4697H55.2244H55.3439H55.4565C55.4565 87.4697 55.5057 87.4697 55.5057 87.5602C55.5057 87.6507 55.5057 87.6368 55.5057 87.7552C55.5057 87.8735 55.5057 87.9432 55.5057 87.9571C55.5057 87.971 55.5057 88.0615 55.5549 88.0337C55.7443 87.8704 55.9577 87.7365 56.1878 87.6368C56.3624 87.5579 56.5515 87.5153 56.7434 87.5115C56.873 87.5023 57.0031 87.5212 57.1245 87.5669C57.246 87.6126 57.3559 87.684 57.4466 87.7761C57.563 87.9209 57.6491 88.0872 57.6998 88.2654C57.7505 88.4435 57.7648 88.6299 57.742 88.8135C57.742 88.9876 57.742 89.2731 57.742 89.67C57.742 90.0669 57.742 90.2688 57.742 90.2619C57.742 90.6309 57.742 90.8119 57.8193 90.8119H58.3679H58.4171V90.9303L58.403 90.8607ZM65.147 90.1644C65.152 90.1741 65.1546 90.1848 65.1546 90.1957C65.1546 90.2066 65.152 90.2173 65.147 90.227C64.8769 90.4778 64.552 90.6637 64.1977 90.7702C63.7782 90.9067 63.3381 90.9703 62.8967 90.9582C62.538 90.968 62.1799 90.9234 61.8348 90.8259C61.5427 90.7142 61.2787 90.5407 61.0612 90.3176C60.8366 90.0705 60.6653 89.7807 60.5577 89.4658C60.45 89.1509 60.4084 88.8176 60.4354 88.4863C60.4364 87.9998 60.5596 87.5212 60.794 87.0937C60.9991 86.7097 61.3021 86.3856 61.6731 86.1537C62.2721 85.8029 62.9608 85.6312 63.6562 85.6593C63.931 85.6578 64.2057 85.6718 64.479 85.7011C64.6685 85.7069 64.856 85.7422 65.0345 85.8055C65.0382 85.8119 65.0402 85.8191 65.0402 85.8264C65.0402 85.8337 65.0382 85.8409 65.0345 85.8473C65.0345 85.8891 65.0345 85.9935 65.0345 86.1676C65.0345 86.3417 65.0345 86.4252 64.9923 86.5297C64.9501 86.6341 64.9923 86.5714 64.9923 86.5714C64.9859 86.5751 64.9786 86.577 64.9712 86.577C64.9638 86.577 64.9566 86.5751 64.9501 86.5714C64.944 86.534 64.9296 86.4983 64.9079 86.467C64.8204 86.3616 64.7129 86.2741 64.5915 86.2094C64.214 86.052 63.8049 85.9829 63.396 86.0074C63.0982 85.9926 62.8005 86.0395 62.522 86.145C62.2435 86.2505 61.9903 86.4123 61.7785 86.6202C61.5502 86.8508 61.3705 87.1241 61.2497 87.4242C61.129 87.7242 61.0697 88.045 61.0753 88.3679C61.0541 88.701 61.106 89.0346 61.2274 89.3459C61.3488 89.6572 61.5368 89.9388 61.7785 90.1713C61.977 90.3693 62.2171 90.5215 62.4818 90.617C62.7726 90.6955 63.0736 90.7307 63.3749 90.7214C63.6526 90.7229 63.9269 90.6609 64.1766 90.5404C64.4126 90.4439 64.6153 90.2819 64.7603 90.0739C64.8239 89.9792 64.867 89.8725 64.8868 89.7605C64.8868 89.7118 64.8868 89.6909 64.8868 89.6909C64.8868 89.6909 64.8868 89.6909 64.8868 89.7257C64.9077 89.807 64.936 89.8862 64.9712 89.9624C64.9994 90.0274 65.0345 90.0971 65.0767 90.1713L65.147 90.1644ZM68.2764 87.79C68.2491 87.9506 68.2091 88.1089 68.1569 88.2635C68.1569 88.3052 68.1569 88.3261 68.1077 88.3261C68.0966 88.3311 68.0846 88.3337 68.0725 88.3337C68.0604 88.3337 68.0484 88.3311 68.0373 88.3261C67.9917 88.2507 67.932 88.1846 67.8615 88.1312C67.7523 88.0499 67.6183 88.0081 67.4818 88.0128C67.2502 87.995 67.02 88.0619 66.8348 88.2008C66.8206 88.2127 66.8094 88.2277 66.8021 88.2446C66.7947 88.2615 66.7915 88.2799 66.7926 88.2983C66.7926 88.2983 66.7926 88.6047 66.7926 89.1756V90.0739C66.7926 90.5381 66.8348 90.7702 66.9192 90.7702H67.6646C67.6646 90.7702 67.7139 90.7702 67.7139 90.8259V90.9373H65.7026C65.6674 90.9373 65.6463 90.9373 65.6463 90.9373V90.8259C65.6463 90.791 65.6463 90.7702 65.6956 90.7702H66.1527C66.2019 90.7702 66.223 90.7702 66.223 90.7005V88.2147C66.223 87.8735 66.1808 87.6995 66.1034 87.6995H65.6323C65.6265 87.7008 65.6204 87.7006 65.6147 87.699C65.6089 87.6974 65.6037 87.6943 65.5995 87.6902C65.5953 87.686 65.5922 87.6808 65.5905 87.6751C65.5889 87.6694 65.5887 87.6634 65.5901 87.6577V87.5393C65.5887 87.5336 65.5889 87.5275 65.5905 87.5219C65.5922 87.5162 65.5953 87.511 65.5995 87.5068C65.6037 87.5027 65.6089 87.4996 65.6147 87.498C65.6204 87.4963 65.6265 87.4962 65.6323 87.4975H66.1527C66.2696 87.5094 66.3874 87.5094 66.5043 87.4975L66.7364 87.4349C66.7364 87.4349 66.7856 87.4349 66.7856 87.5393C66.7856 87.6438 66.7856 87.6298 66.7856 87.7621C66.7856 87.8944 66.7856 87.9641 66.7856 87.9849C66.7856 88.0058 66.7856 88.0755 66.8348 88.0476L67.2357 87.7134C67.3898 87.5907 67.5795 87.5199 67.7771 87.5115C67.8728 87.508 67.9677 87.5301 68.0519 87.5755C68.136 87.6208 68.2063 87.6877 68.2553 87.7691C68.2554 87.7714 68.2554 87.7737 68.2553 87.7761L68.2764 87.79Z" fill="black"/>
<path d="M71.9125 89.1269C71.9176 89.4277 71.8601 89.7263 71.7437 90.0042C71.5922 90.306 71.3453 90.5505 71.0404 90.7005C70.792 90.8325 70.5137 90.8996 70.2317 90.8955C69.9933 90.9058 69.7549 90.8727 69.5285 90.798C69.2163 90.6585 68.9662 90.4109 68.8253 90.1017C68.671 89.7896 68.5915 89.4465 68.5932 89.099C68.5859 88.7418 68.6732 88.3889 68.8464 88.0755C68.9961 87.8099 69.2243 87.5961 69.5004 87.4627C69.7958 87.3397 70.1157 87.2849 70.4357 87.3026C70.7049 87.2882 70.9728 87.3485 71.2092 87.4766C71.4635 87.6437 71.656 87.8881 71.7577 88.173C71.876 88.4698 71.9334 88.787 71.9265 89.106L71.9125 89.1269ZM71.371 89.3079C71.3965 88.8687 71.2645 88.4347 70.9983 88.0824C70.8764 87.934 70.7217 87.8154 70.5461 87.7357C70.3705 87.656 70.1787 87.6174 69.9856 87.6229C69.838 87.6144 69.6902 87.6333 69.5496 87.6786C69.4711 87.721 69.4055 87.7835 69.3597 87.8596C69.1916 88.1513 69.1133 88.4853 69.1347 88.8205C69.1306 89.2414 69.2144 89.6587 69.3808 90.046C69.4672 90.2705 69.622 90.4628 69.8239 90.5961C69.9871 90.6937 70.1746 90.7443 70.3653 90.7423C70.5495 90.7523 70.7333 90.7163 70.8998 90.6379C71.0739 90.512 71.2022 90.3337 71.2655 90.1296C71.3471 89.8635 71.3827 89.5857 71.371 89.3079ZM74.9786 89.8998C74.9875 90.1519 74.9052 90.3988 74.7465 90.5961C74.6201 90.7202 74.4675 90.8151 74.2998 90.8741C74.132 90.933 73.9532 90.9546 73.776 90.9373C73.3341 90.949 72.9017 90.8087 72.5524 90.5404C72.5319 90.5193 72.5162 90.4941 72.5065 90.4664C72.4968 90.4388 72.4932 90.4094 72.4961 90.3802C72.4961 90.2758 72.4961 90.053 72.4961 89.6839C72.4961 89.6422 72.4961 89.6143 72.5594 89.6143C72.577 89.6122 72.5948 89.6168 72.6092 89.6271C72.6235 89.6375 72.6334 89.6528 72.6368 89.67C72.6368 89.67 72.6368 89.7187 72.6368 89.7744L72.679 89.9207C72.7522 90.1608 72.8742 90.3835 73.0376 90.5752C73.0691 90.6178 73.1134 90.6495 73.1642 90.6657C73.3608 90.6812 73.5583 90.6812 73.7549 90.6657C73.9915 90.6781 74.2243 90.6037 74.4089 90.4568C74.4705 90.3989 74.5187 90.3284 74.5503 90.2503C74.5818 90.1722 74.596 90.0883 74.5918 90.0042C74.5923 89.9481 74.58 89.8926 74.5556 89.8419C74.5312 89.7912 74.4955 89.7467 74.4511 89.7118C74.3068 89.5894 74.1319 89.5077 73.9448 89.475L73.7268 89.3984L73.5018 89.3219C73.2684 89.2303 73.0522 89.1009 72.8618 88.9389C72.7694 88.8483 72.6972 88.7395 72.65 88.6196C72.6027 88.4996 72.5815 88.3712 72.5876 88.2426C72.5861 88.1342 72.6065 88.0267 72.6476 87.9263C72.6887 87.8259 72.7495 87.7345 72.8267 87.6577C72.9432 87.5455 73.0824 87.4589 73.2351 87.4037C73.3878 87.3485 73.5506 87.3259 73.7127 87.3374C73.9027 87.3204 74.0942 87.342 74.2756 87.4006C74.4569 87.4593 74.6243 87.5538 74.7676 87.6786C74.7757 87.7082 74.7757 87.7395 74.7676 87.7691V88.4306C74.7676 88.4793 74.7676 88.5141 74.7676 88.5141C74.7523 88.5138 74.7375 88.509 74.725 88.5003C74.7125 88.4916 74.7028 88.4795 74.6973 88.4654C74.5988 88.2565 74.4933 88.0267 74.3738 87.7691C74.3664 87.7517 74.3548 87.7362 74.3401 87.7241C74.3255 87.712 74.3081 87.7035 74.2894 87.6995C74.1161 87.663 73.9391 87.6467 73.762 87.6507C73.5736 87.6458 73.3871 87.6889 73.2205 87.7761C73.1448 87.8168 73.0819 87.8772 73.0385 87.9509C72.9951 88.0246 72.9729 88.1086 72.9743 88.1938C72.9743 88.4933 73.1853 88.7021 73.6002 88.8205L74.1628 89.0016C74.3669 89.0622 74.5561 89.1642 74.7184 89.301C74.8037 89.3812 74.8705 89.4787 74.9142 89.5869C74.9579 89.695 74.9775 89.8113 74.9715 89.9276L74.9786 89.8998ZM78.0728 89.8998C78.0817 90.1519 77.9994 90.3988 77.8407 90.5961C77.7143 90.7202 77.5618 90.8151 77.394 90.8741C77.2263 90.933 77.0474 90.9546 76.8703 90.9373C76.4283 90.949 75.9959 90.8087 75.6466 90.5404C75.6261 90.5193 75.6104 90.4941 75.6007 90.4664C75.591 90.4388 75.5875 90.4094 75.5904 90.3802C75.5904 90.2758 75.5904 90.053 75.5904 89.6839C75.5904 89.6422 75.5904 89.6143 75.6537 89.6143C75.6713 89.6122 75.689 89.6168 75.7034 89.6271C75.7177 89.6375 75.7276 89.6528 75.731 89.67C75.7261 89.7047 75.7261 89.7398 75.731 89.7744L75.7732 89.9207C75.8464 90.1608 75.9685 90.3835 76.1319 90.5752C76.1634 90.6178 76.2077 90.6495 76.2585 90.6657C76.455 90.6812 76.6526 90.6812 76.8492 90.6657C77.0838 90.6797 77.315 90.605 77.4961 90.4568C77.5597 90.4001 77.6098 90.33 77.6426 90.2517C77.6755 90.1734 77.6903 90.0889 77.686 90.0042C77.6851 89.9484 77.6721 89.8933 77.6478 89.8429C77.6235 89.7924 77.5886 89.7477 77.5454 89.7118C77.401 89.5894 77.2262 89.5077 77.039 89.475L76.814 89.3984C76.7409 89.3677 76.6657 89.3421 76.589 89.3219C76.3585 89.2288 76.1448 89.0995 75.9561 88.9389C75.8636 88.8483 75.7915 88.7395 75.7442 88.6196C75.697 88.4996 75.6757 88.3712 75.6818 88.2426C75.7058 88.0467 75.8007 87.8661 75.949 87.7343C76.0656 87.6221 76.2048 87.5355 76.3575 87.4803C76.5102 87.4251 76.673 87.4025 76.8351 87.414C77.0251 87.397 77.2166 87.4186 77.398 87.4772C77.5793 87.5359 77.7467 87.6304 77.89 87.7552C77.898 87.7848 77.898 87.816 77.89 87.8457V88.4306C77.89 88.4793 77.89 88.5141 77.8478 88.5141C77.8337 88.5125 77.8204 88.5071 77.8092 88.4985C77.7981 88.4899 77.7895 88.4785 77.7845 88.4654C77.686 88.2565 77.5805 88.0267 77.461 87.7691C77.4536 87.7517 77.442 87.7362 77.4273 87.7241C77.4127 87.712 77.3953 87.7035 77.3766 87.6995C77.2033 87.663 77.0263 87.6467 76.8492 87.6507C76.6608 87.6458 76.4743 87.6889 76.3077 87.7761C76.232 87.8168 76.1691 87.8772 76.1257 87.9509C76.0823 88.0246 76.0601 88.1086 76.0615 88.1938C76.0615 88.4933 76.2725 88.7021 76.6874 88.8205L77.25 89.0016C77.4541 89.0622 77.6433 89.1642 77.8056 89.301C77.8909 89.3812 77.9577 89.4787 78.0014 89.5869C78.0451 89.695 78.0647 89.8113 78.0587 89.9276L78.0728 89.8998ZM81.589 90.3663C81.5277 90.429 81.4619 90.4872 81.3921 90.5404C81.2705 90.6166 81.1436 90.6841 81.0123 90.7423C80.7495 90.8599 80.4639 90.9193 80.1755 90.9164C79.9792 90.9279 79.7826 90.8985 79.5985 90.8302C79.4144 90.7618 79.2468 90.656 79.1066 90.5195C78.9499 90.3686 78.8261 90.1877 78.7426 89.9877C78.6592 89.7877 78.6179 89.573 78.6213 89.3567C78.6169 89.1233 78.6358 88.8901 78.6776 88.6604C78.7431 88.3275 78.9043 88.0204 79.1417 87.7761C79.2674 87.6505 79.4177 87.5517 79.5834 87.4859C79.7491 87.42 79.9267 87.3884 80.1051 87.3931C80.2596 87.3877 80.4133 87.4163 80.5552 87.4766C80.7075 87.5621 80.8554 87.655 80.9983 87.7552C81.1984 87.8908 81.3625 88.0724 81.4765 88.2844C81.4848 88.3234 81.4848 88.3637 81.4765 88.4027C81.4765 88.4027 81.4765 88.4515 81.4061 88.4654C81.1278 88.5495 80.8433 88.6124 80.5552 88.6534C80.2029 88.7275 79.8457 88.7764 79.4863 88.7996H79.1206C79.1206 88.7996 79.0714 88.8623 79.0714 88.9807C79.0636 89.2225 79.1115 89.4628 79.2114 89.6836C79.3113 89.9044 79.4606 90.0997 79.648 90.2549C79.9443 90.457 80.3023 90.5506 80.6607 90.5195C80.8627 90.5242 81.0643 90.4983 81.2585 90.4429C81.3412 90.4199 81.4179 90.3796 81.4835 90.3245V90.3594L81.589 90.3663ZM80.8857 88.347C80.8796 88.3096 80.8652 88.2739 80.8435 88.2426C80.7409 88.0593 80.6022 87.8983 80.4357 87.7691C80.2702 87.6442 80.0671 87.578 79.859 87.5811C79.765 87.5911 79.6747 87.6227 79.5954 87.6735C79.516 87.7243 79.4497 87.7928 79.4019 87.8735C79.3287 87.9768 79.2696 88.0892 79.2261 88.2078C79.1734 88.3272 79.1402 88.4541 79.1276 88.5838C79.1276 88.6256 79.1276 88.6464 79.1769 88.6464L79.8309 88.5907C80.1678 88.5769 80.5013 88.5183 80.8224 88.4167C80.8646 88.4167 80.8857 88.3749 80.8857 88.347ZM84.4863 87.7552C84.4623 87.9165 84.4222 88.0751 84.3667 88.2287C84.3667 88.2704 84.3667 88.2913 84.3175 88.2913C84.2949 88.2999 84.2698 88.2999 84.2472 88.2913C84.2016 88.2159 84.1419 88.1498 84.0714 88.0964C83.9622 88.0151 83.8282 87.9733 83.6916 87.978C83.46 87.9602 83.2298 88.0271 83.0447 88.166C83.0305 88.1779 83.0192 88.1929 83.0119 88.2098C83.0046 88.2267 83.0014 88.2451 83.0025 88.2635V89.1269C83.0025 89.6909 83.0025 89.9903 83.0025 90.0251C83.0025 90.4893 83.0447 90.7214 83.1291 90.7214H83.8745C83.8745 90.7214 83.9237 90.7214 83.9237 90.7771V90.8885H81.9687H81.9125V90.7771C81.9125 90.7423 81.9125 90.7214 81.9617 90.7214H82.4188C82.468 90.7214 82.4961 90.7214 82.4961 90.6518V88.166C82.4961 87.8248 82.4539 87.6507 82.3696 87.6507H81.8984C81.8984 87.6507 81.8984 87.6507 81.8984 87.6089V87.4906V87.4488H82.4188C82.5357 87.4606 82.6535 87.4606 82.7704 87.4488L83.0025 87.3861C83.0025 87.3861 83.0517 87.3861 83.0517 87.4906C83.0517 87.595 83.0517 87.5811 83.0517 87.7134C83.0517 87.8457 83.0517 87.9153 83.0517 87.9362C83.0517 87.9571 83.0517 88.0267 83.1009 87.9989L83.5018 87.6647C83.6559 87.5419 83.8456 87.4712 84.0433 87.4627C84.139 87.4593 84.2338 87.4814 84.318 87.5267C84.4021 87.5721 84.4724 87.6389 84.5215 87.7204C84.5301 87.7364 84.5346 87.7544 84.5346 87.7726C84.5346 87.7908 84.5301 87.8087 84.5215 87.8248L84.4863 87.7552ZM85.6888 87.1772C85.6799 87.6762 85.6376 88.1739 85.5622 88.6673C85.5169 89.0138 85.4535 89.3578 85.3724 89.6979C85.3724 89.7675 85.3161 89.7953 85.2669 89.7953C85.2177 89.7953 85.1825 89.7536 85.1825 89.6561C85.1786 89.6121 85.1786 89.5678 85.1825 89.5238C85.2143 89.2697 85.2284 89.0138 85.2247 88.7579C85.2232 87.9463 85.1573 87.1361 85.0278 86.3347C85.0278 86.1119 84.9715 86.0005 84.9715 86.0074C84.9705 85.9944 84.9723 85.9812 84.9769 85.9689C84.9814 85.9566 84.9887 85.9455 84.998 85.9362C85.0074 85.9269 85.0187 85.9198 85.0311 85.9152C85.0435 85.9107 85.0568 85.9089 85.07 85.91C85.1399 85.9079 85.2087 85.9274 85.2669 85.9657L85.5411 86.091C85.5679 86.1045 85.5916 86.1232 85.6109 86.1459C85.6302 86.1686 85.6448 86.1949 85.6537 86.2233C85.672 86.541 85.672 86.8595 85.6537 87.1772H85.6888ZM85.6255 90.5961C85.6277 90.6386 85.6206 90.6811 85.6049 90.7208C85.5891 90.7604 85.565 90.7962 85.5341 90.8259C85.5014 90.8638 85.4602 90.8935 85.4138 90.9129C85.3674 90.9322 85.3171 90.9406 85.2669 90.9373C85.0559 90.9373 84.9575 90.8259 84.9575 90.617C84.9515 90.5711 84.9564 90.5244 84.9717 90.4807C84.987 90.437 85.0124 90.3974 85.0458 90.365C85.0792 90.3326 85.1197 90.3083 85.1642 90.2941C85.2086 90.2798 85.2558 90.2759 85.3021 90.2828C85.346 90.2786 85.3902 90.2846 85.4313 90.3005C85.4724 90.3164 85.5092 90.3416 85.5386 90.3741C85.5681 90.4067 85.5893 90.4456 85.6008 90.4878C85.6122 90.53 85.6135 90.5742 85.6044 90.617L85.6255 90.5961Z" fill="black"/>
</g>
<defs>
<linearGradient id="paint0_linear" x1="25.7383" y1="22.1356" x2="71.6736" y2="22.1356" gradientUnits="userSpaceOnUse">
<stop stop-color="#08C6FA"/>
<stop offset="1" stop-color="#F00C6F"/>
</linearGradient>
<linearGradient id="paint1_linear" x1="31.54" y1="21.9336" x2="65.872" y2="21.9336" gradientUnits="userSpaceOnUse">
<stop stop-color="white"/>
<stop offset="1" stop-color="white"/>
</linearGradient>
<linearGradient id="paint2_linear" x1="1161.47" y1="659.381" x2="1759.84" y2="659.381" gradientUnits="userSpaceOnUse">
<stop stop-color="white"/>
<stop offset="1" stop-color="white"/>
</linearGradient>
<clipPath id="clip0">
<rect width="95" height="91" fill="white"/>
</clipPath>
</defs>
</svg>
