<svg width="55" height="61" viewBox="0 0 55 61" fill="none" xmlns="http://www.w3.org/2000/svg">
<path fill-rule="evenodd" clip-rule="evenodd" d="M1.03707 0.895508C0.386651 1.62206 0 2.71611 0 4.13014V56.2422C0 57.4355 0.281778 58.3912 0.755293 59.1019L29.7541 29.8572L1.03707 0.895508Z" fill="black"/>
<path fill-rule="evenodd" clip-rule="evenodd" d="M31.5212 28.6555L40.5739 19.7085L6.46347 0.775453C5.04216 -0.0124195 3.73973 -0.175644 2.70508 0.175917L31.5212 28.6555Z" fill="black"/>
<path fill-rule="evenodd" clip-rule="evenodd" d="M31.0914 31.3418L1.80273 60.512C2.89687 61.1049 4.38 61.03 6.02067 60.1132L40.5732 40.7842L31.0914 31.3418Z" fill="black"/>
<path fill-rule="evenodd" clip-rule="evenodd" d="M52.546 26.7601L41.6158 20.5962L32.459 29.7899L42.0303 39.4013L52.546 33.4697C55.818 31.6251 55.818 28.6047 52.546 26.7601Z" fill="black"/>
</svg>
