<svg width="50" height="50" viewBox="0 0 50 50" fill="none" xmlns="http://www.w3.org/2000/svg">
<rect x="12.5" y="10.4167" width="25" height="31.25" rx="2" fill="#F0E9E0"/>
<path d="M19.7917 19.7917L30.2083 19.7917" stroke="#C1D4C1" stroke-linecap="round"/>
<path d="M19.7917 26.0417L30.2083 26.0417" stroke="#C1D4C1" stroke-linecap="round"/>
<path d="M19.7917 32.2917L30.2083 32.2917" stroke="#C1D4C1" stroke-linecap="round"/>
<path d="M16.6667 9.33334C16.6667 8.78105 17.1144 8.33334 17.6667 8.33334H32.3333C32.8856 8.33334 33.3333 8.78105 33.3333 9.33334V10.2667C33.3333 10.3495 33.2662 10.4167 33.1833 10.4167H31.75C31.4739 10.4167 31.25 10.6405 31.25 10.9167V12.35C31.25 12.4328 31.1828 12.5 31.1 12.5H18.9C18.8172 12.5 18.75 12.4328 18.75 12.35V10.9167C18.75 10.6405 18.5261 10.4167 18.25 10.4167H16.8167C16.7338 10.4167 16.6667 10.3495 16.6667 10.2667V9.33334Z" fill="#C1D4C1"/>
</svg>
