<svg width="50" height="50" viewBox="0 0 50 50" fill="none" xmlns="http://www.w3.org/2000/svg">
<path d="M8.33333 35.5V21.076C8.33333 20.9645 8.45068 20.892 8.55041 20.9419L23.6584 28.4958C24.5029 28.9181 25.4971 28.9181 26.3416 28.4958L41.4496 20.9419C41.5493 20.892 41.6667 20.9645 41.6667 21.076V35.5C41.6667 36.6046 40.7712 37.5 39.6667 37.5H10.3333C9.22876 37.5 8.33333 36.6046 8.33333 35.5Z" fill="#B88A77"/>
<path d="M8.33333 14.5V18.6573C8.33333 18.7141 8.36543 18.7661 8.41625 18.7915L23.6584 26.4125C24.5029 26.8348 25.4971 26.8348 26.3416 26.4125L41.5837 18.7915C41.6346 18.7661 41.6667 18.7141 41.6667 18.6573V14.5C41.6667 13.3954 40.7712 12.5 39.6667 12.5H10.3333C9.22876 12.5 8.33333 13.3954 8.33333 14.5Z" fill="#F0E9E0"/>
</svg>
