<svg width="50" height="50" viewBox="0 0 50 50" fill="none" xmlns="http://www.w3.org/2000/svg">
<path d="M40.3359 37.5C41.8901 38.4501 42.7083 39.5279 42.7083 40.625C42.7083 41.7221 41.8901 42.7999 40.3359 43.75C38.7816 44.7001 36.5462 45.4891 33.8542 46.0377C31.1622 46.5862 28.1085 46.875 25 46.875C21.8915 46.875 18.8378 46.5862 16.1458 46.0377C13.4538 45.4891 11.2184 44.7001 9.66414 43.75C8.1099 42.7999 7.29167 41.7221 7.29167 40.625C7.29167 39.5279 8.1099 38.4501 9.66413 37.5" stroke="white" stroke-linecap="round"/>
<path d="M39.5833 20.8333C39.5833 31.8462 27.7405 38.237 25.3993 39.3928C25.1439 39.5189 24.8561 39.5189 24.6007 39.3928C22.2595 38.237 10.4167 31.8462 10.4167 20.8333C10.4167 12.7792 16.9458 6.25 25 6.25C33.0542 6.25 39.5833 12.7792 39.5833 20.8333Z" fill="white"/>
<circle cx="25" cy="20.8333" r="6.25" fill="#1E3653"/>
</svg>
