<?xml version="1.0" encoding="UTF-8"?><svg xmlns="http://www.w3.org/2000/svg" xmlns:xlink="http://www.w3.org/1999/xlink" width="306" height="83" viewBox="0 0 306 83"><defs><path id="a" d="M0 .33h163.453V83H0z"/><path id="c" d="M0 84h307V1H0z"/></defs><g fill="none" fill-rule="evenodd"><mask id="b" fill="#fff"><use xlink:href="#a"/></mask><path fill="#1E3551" d="M73.07 35.972a5.492 5.492 0 0 0-.965-1.414l-.427-.406L58.776 21.98l-4.238-4.04a5.545 5.545 0 0 1-1.867-4.738c.06-.598.215-1.166.448-1.694l.22-.442 3.102-6.093 3.29 3.136 3.246 3.093a4.337 4.337 0 0 1 1.379 4.196c-.027.124-.06.246-.095.366l-.122.335-1.128 3.125 1.168.605 2.008-5.567.396-1.094a4.358 4.358 0 0 0-.067-3.654 4.375 4.375 0 0 0-.835-1.173l-.168-.16-7.24-6.9-.997-.95-1.833 3.692-5.033 9.983-.898 1.81a5.529 5.529 0 0 0-.688 2.68 5.556 5.556 0 0 0 1.974 4.25l12.966 12.235 4.215 4.018.795.756a5.432 5.432 0 0 1 1.316 3.55c0 .028-.003.056-.003.085-.008.509-.086 1-.223 1.465l-.217.602-6.538 17.801-2.128 5.9-2.617 7.249-.47-10.192-.187-4.04a10 10 0 0 0-2.65-6.59l-.949-.904-6.886-6.564-3.94-3.754-.448-.427a5.332 5.332 0 0 1-1.399-4.343c.073-.57.235-1.111.473-1.612l.044-.087 4.714-9.501-1.168-.606-6.296 12.687-.696 1.404a5.347 5.347 0 0 0 1.152 6.958l4.364 4.158 8.265 7.878.626.596a10.008 10.008 0 0 1 2.63 5.055L57.817 83l15.24-42.355s.288-.757.368-1.015c.127-.422.165-.873.165-1.333 0-.832-.188-1.62-.521-2.325zm85.14 34.705V33.648c-.083-2.901-1.322-5.435-3.16-6.907-1.04-.833-2.27-1.327-3.593-1.356h-2.289c-.12.004-.238.01-.358.01s-.24-.006-.358-.01h-6.302v53.553h9.378c1.296-.045 2.5-.535 3.522-1.353 1.838-1.473 3.077-4.006 3.16-6.908zm5.24-1.282l.003.119-.003.12a10.685 10.685 0 0 1-3.89 8.137 10.616 10.616 0 0 1-1.726 1.167c-.862.468-1.798.82-2.784 1.039a10.84 10.84 0 0 1-2.074.253c-.092.002-.183.006-.276.006-.092 0-.183-.004-.275-.006H136.91V5.063l.008.004a10.81 10.81 0 0 1 3.333 3.116 10.685 10.685 0 0 1 1.899 5.997l.002.09-.002.09v9.442h6.311a5.722 5.722 0 0 0 2.405-.675c2.43-1.289 4.14-4.27 4.184-7.755v-3.367c0-3.5-1.682-6.507-4.094-7.842a5.807 5.807 0 0 0-2.137-.697H136.91V1.884h11.79c.035 0 .073-.003.11-.003.037 0 .074.003.11.003a10.717 10.717 0 0 1 6.13 1.99 10.783 10.783 0 0 1 3.16 3.524 10.636 10.636 0 0 1 1.35 5.086c0 .04.003.08.003.119 0 .04-.003.08-.004.12v1.83c.001.039.004.078.004.118 0 .041-.003.08-.004.121a10.636 10.636 0 0 1-1.349 5.085 10.78 10.78 0 0 1-3.949 4.036c.266.04.528.09.789.147 1.131.252 2.195.679 3.16 1.254l.117.07c.433.265.844.56 1.232.881a10.686 10.686 0 0 1 3.891 8.138l.003.12-.003.12v34.752zm-50.174 1.282V33.648c-.083-2.901-1.322-5.435-3.16-6.907-1.04-.833-2.27-1.327-3.593-1.356h-2.29c-.119.004-.238.01-.358.01s-.239-.006-.358-.01h-6.301v53.553h9.379c1.295-.045 2.5-.535 3.52-1.353 1.84-1.473 3.078-4.006 3.161-6.908zm5.24-1.282l.002.119-.002.12a10.685 10.685 0 0 1-3.89 8.137 10.735 10.735 0 0 1-6.585 2.459c-.092.002-.183.006-.275.006-.093 0-.184-.004-.275-.006H91.976V5.063l.007.004a10.814 10.814 0 0 1 3.333 3.116 10.648 10.648 0 0 1 1.613 3.62c.18.765.28 1.56.287 2.377l.002.09-.002.09v9.442H103.526a5.73 5.73 0 0 0 2.406-.675c2.428-1.289 4.138-4.27 4.184-7.755v-.278l-.001-3.089c0-3.5-1.682-6.507-4.094-7.842a5.798 5.798 0 0 0-2.137-.697H91.976V1.884h11.788l.111-.003c.038 0 .074.003.112.003a10.722 10.722 0 0 1 6.129 1.99 10.792 10.792 0 0 1 3.16 3.524 10.646 10.646 0 0 1 1.35 5.086l.002.119-.003.12v1.83c0 .039.003.078.003.118 0 .041-.002.08-.003.121a10.645 10.645 0 0 1-1.349 5.085 10.789 10.789 0 0 1-3.95 4.036 10.72 10.72 0 0 1 3.95 1.401l.118.07c.43.265.843.56 1.231.881a10.686 10.686 0 0 1 3.89 8.138l.003.12-.002.12v34.752zM17.45 80.335v1.29a10.71 10.71 0 0 1-1.744-1.29 10.68 10.68 0 0 1-3.508-7.923c0-.16.005-.316.011-.473V3.462H0V1.88H29.787v1.582H17.45v76.872z" mask="url(#b)"/><mask id="d" fill="#fff"><use xlink:href="#c"/></mask><path fill="#1E3551" d="M182.458 57.995h6.618v-2.721h-6.618v2.721zm-1.367-3.97h9.425v5.947h-1.44v-.715h-6.618V60h-1.367v-5.974zm7.084-5.455c1.367 1.192 3.068 2.917 3.825 4.067l-1.135.814c-.218-.35-.509-.744-.843-1.15-8 .406-8.93.434-9.586.659-.058-.267-.29-.912-.436-1.277.35-.055.712-.35 1.193-.799.509-.463 2.152-2.188 3.214-3.884l1.353.56a28.024 28.024 0 0 1-3.476 3.871l6.763-.267a30.474 30.474 0 0 0-1.92-1.907l1.048-.687zM210.39 51.795c.27.57.51 1.313.567 1.77l-.609.27c-.056-.485-.283-1.24-.538-1.826l.58-.214zm-1.36 2.255c0-.457-.127-1.242-.298-1.84l.624-.158c.17.585.312 1.327.326 1.784l-.652.214zm1.346-2.34c-.042-.13-.1-.3-.17-.486-1.857.257-2.211.328-2.425.414a8.415 8.415 0 0 0-.269-.614c.199-.029.411-.2.668-.485.127-.142.453-.514.779-.984-.822.085-1.064.128-1.22.2a3.22 3.22 0 0 0-.27-.614c.157-.014.3-.157.454-.371.142-.2.638-1.013.852-1.77l.765.271a8.158 8.158 0 0 1-.907 1.614l.808-.043c.113-.215.24-.43.34-.643l.751.329c-.453.77-1.02 1.54-1.63 2.183l1.035-.13-.227-.413.582-.214c.297.485.595 1.1.708 1.498l-.624.257zm-1.857.484c-.128.685-.34 1.442-.596 1.926a3.89 3.89 0 0 0-.609-.427c.27-.471.412-1.085.51-1.67l.695.171zm-3.147.957h1.007v-.785h-1.007v.785zm-.794-1.912h2.637v-.67h-2.637v.67zm0-1.057h2.637v-.67h-2.637v.67zm-.028 3.624h2.68V51.71h-2.68v2.097zm2.99-4.75h-3.373v-.743h1.432c-.1-.314-.326-.756-.496-1.084l.864-.2c.228.329.469.827.568 1.113l-.652.17h1.658v.744zm-3.855 4.522a7.25 7.25 0 0 0-.44-1.555l.568-.2c.227.471.41 1.1.467 1.484l-.595.271zm-1.233.357c0-.457-.128-1.17-.284-1.712l.623-.157c.17.528.312 1.213.327 1.641l-.666.228zm8.024 3.14s-.03.342-.085.498c-.241 1.185-.525 1.813-.893 2.098-.326.243-.653.314-1.177.329-.426 0-1.29 0-2.169-.043-.015-.314-.17-.728-.355-1.014.865.086 1.787.1 2.141.1.312 0 .453 0 .61-.1.198-.143.355-.456.51-1.013h-7.302c.228-.642.454-1.512.624-2.254h6.21v-.613h-6.677v-.8h7.91v2.213h-6.407l-.17.598h7.23zm-6.72-5.395a2.958 2.958 0 0 0-.142-.427c-1.858.242-2.212.314-2.41.413a4.605 4.605 0 0 0-.283-.613c.226-.029.425-.214.665-.471.142-.143.47-.528.794-1-.836.087-1.077.13-1.219.187-.043-.143-.17-.457-.283-.6.17-.028.312-.171.468-.37.128-.214.638-1.028.836-1.784l.78.27a8.347 8.347 0 0 1-.936 1.628l.823-.043a7.33 7.33 0 0 0 .354-.642l.752.314a13.13 13.13 0 0 1-1.63 2.182l1.034-.128c-.071-.143-.156-.285-.227-.414l.596-.214c.27.442.552 1.07.652 1.441l-.624.271zm-1.829.572c-.113.685-.34 1.44-.595 1.926-.127-.128-.426-.314-.61-.414.27-.485.425-1.098.51-1.684l.695.172zm-1.659-2.697c-.382-.485-1.262-1.142-1.97-1.584l.765-.871c.708.386 1.588.999 2.013 1.456l-.808.999zm-1.985 9.602c.51-1.098 1.234-2.924 1.758-4.522l1.05.685c-.454 1.47-1.063 3.181-1.63 4.509l-1.178-.672zm1.745-5.935c-.412-.457-1.319-1.1-2.028-1.484l.723-.914c.723.357 1.644.928 2.07 1.37l-.765 1.028zM224.133 47c-.014.541-.028 1.283-.099 2.124.198 1.782 1.056 7.469 5.966 9.678-.38.3-.774.77-.957 1.126-3.306-1.582-4.84-4.718-5.585-7.27-.703 2.681-2.195 5.56-5.375 7.342A4.077 4.077 0 0 0 217 58.945c5.755-3.021 5.6-9.665 5.642-11.945h1.491zM246.527 51.49h.967v-.862h-.967v.861zm0-1.709h.967v-.847h-.967v.847zm-1.733 1.708h.895v-.861h-.895v.861zm0-1.708h.895v-.847h-.895v.847zm-.766 7.453c.226.465.468 1.044.61 1.467h1.25c.213-.465.441-1.058.569-1.467h-2.43zm-.498-.833h3.466v-.988h-3.466v.988zm-.512-4.912h.938v-.861h-.938v.861zm0-1.708h.938v-.847h-.938v.847zm5.512 2.611h-6.52v-4.347h1.733V47h1.051v1.045h.852V47h1.052v1.045h1.832v4.347zm-6.776 1.595h7.117v-.974h-7.117v.974zM249 58.701v.988h-7.402v-.988h1.875c-.127-.38-.285-.818-.44-1.185l.95-.282h-1.604v-2.668h5.853v2.668h-1.662l1.08.296c-.242.396-.455.805-.669 1.171H249zm-9.832-7.312h.753v-1.425h-.753v1.425zm-1.293 4.334c0 .452-.014.96-.071 1.497.57-.24 1.294-.608 2.06-.99v-2.256h-1.989v.973l.526-.536c.54.324 1.15.776 1.45 1.072l-.598.678a9.92 9.92 0 0 0-1.378-1.143v.705zm-.156-4.333h.725v-2.215h1.477v-.748h-2.202v2.963zm-.653 1.68h3.523v-.762h-3.523v.763zm3.906.41v5.235c0 .523-.098.791-.44.974-.34.17-.839.184-1.605.184a4.117 4.117 0 0 0-.356-.989c.512.015.952.015 1.11 0 .14 0 .183-.041.183-.183v-1.594c-.582.352-1.15.705-1.676 1.016l-.397-.79c-.13.945-.356 1.92-.867 2.667-.185-.212-.668-.55-.924-.664.725-1.072.796-2.512.796-3.627v-2.23h-.696V51.39h.582v-3.938h4.333v3.938h.583v2.09h-.626zM192 79.68V81h-12.855v-1.32h5.733v-3.376h-4.126V75h4.126v-2.935h-3.214c-.449.88-.927 1.658-1.433 2.275a8.652 8.652 0 0 0-1.231-.822c1.174-1.248 2.085-3.257 2.62-5.311l1.39.322a26.025 26.025 0 0 1-.753 2.2h2.62V68h1.39v2.729h5.039v1.335h-5.039V75h4.502v1.305h-4.502v3.376H192zM211 70.283s0 .454-.015.623c-.31 6.366-.578 8.605-1.127 9.3-.297.425-.578.553-1.03.624-.38.07-.973.056-1.593.028a3.107 3.107 0 0 0-.368-1.29c.593.056 1.116.056 1.383.056.226 0 .367-.055.507-.255.41-.468.706-2.48.96-7.867h-.395c-.72 3.656-2.228 7.385-4.513 9.229a5.979 5.979 0 0 0-1.085-.78c2.27-1.63 3.75-5.018 4.455-8.45h-.944c-.62 2.383-1.847 4.976-3.342 6.31a4.732 4.732 0 0 0-1.014-.753c1.451-1.134 2.607-3.373 3.256-5.556h-1.001c-.437 1.02-.945 1.913-1.523 2.608a9.94 9.94 0 0 0-1.015-.752c1.142-1.247 1.946-3.26 2.411-5.358l1.185.227a21.94 21.94 0 0 1-.578 2.056H211zm-7.473 5.117c-.55.184-1.1.354-1.65.524V81h-1.212v-4.693l-2.214.68-.338-1.26c.704-.185 1.592-.427 2.552-.696v-2.977h-1.129a13.945 13.945 0 0 1-.578 1.972c-.211-.171-.69-.454-.958-.596.493-1.149.747-2.935.888-4.622l1.114.184c-.071.61-.141 1.22-.24 1.815h.903V68h1.212v2.807h1.312v1.247h-1.312v2.61l1.48-.427.17 1.163zM220.157 77.873h6.73v-.817h-6.73v.817zm0-1.62h6.73v-.789h-6.73v.789zm0-1.576h6.73v-.804h-6.73v.804zm-2.855-4.86h3.515v-.986h-3.515v.986zm8.407 8.887c1.478.48 3.071 1.071 4.048 1.535l-1.206.719c-.875-.464-2.381-1.099-3.86-1.591l.833-.663h-4.291l1.191.535c-1.162.69-2.956 1.366-4.391 1.761-.23-.267-.704-.746-.99-.986 1.463-.281 3.143-.76 4.132-1.31h-2.31v-5.662h9.356v5.662h-2.512zm.116-8.536c0 .1 0 .212-.028.34.774.774 2.31 1.253 4.203 1.365-.258.267-.588.733-.717 1.07-1.636-.225-2.941-.732-3.846-1.549-.516.648-1.65 1.254-4.118 1.592a3.719 3.719 0 0 0-.675-.972H217v-1.028h4.161v.93c3.114-.395 3.444-1.183 3.444-1.79v-.183h-1.191a6.615 6.615 0 0 1-1.047 1.31c-.216-.183-.704-.52-1.005-.661.746-.634 1.335-1.607 1.65-2.592l1.192.254c-.087.24-.173.464-.273.703h4.477l.186-.056.918.296c-.358.746-.846 1.563-1.248 2.085l-1.047-.366c.186-.254.402-.62.603-.973h-1.995v.225zM244.825 71.615c-.433-.553-1.383-1.318-2.178-1.83l.655-.892c.783.482 1.746 1.191 2.207 1.715l-.684 1.007zm-.559 3.416c-.474-.51-1.466-1.247-2.29-1.7l.614-.95c.81.439 1.83 1.104 2.333 1.601l-.657 1.05zm3.002 2.055V81h-1.214v-3.687l-4.134.766-.21-1.22 4.344-.793V68h1.214v7.839l1.55-.27.182 1.205-1.732.312zm-5.404-7.994c-.362 1.077-.782 2.396-1.145 3.203l-.824-.255c.294-.851.67-2.255.838-3.204l1.131.256zm-4.915 3.217c-.056-.85-.362-2.182-.698-3.19l.921-.24c.392 1.006.685 2.31.768 3.175l-.99.255zm3.198 2.326c.293.41 1.298 2.268 1.508 2.707l-.907 1.006c-.224-.723-.81-2.112-1.174-2.892V81h-1.214v-7.075h-2.164v-1.233h2.164V68h1.214v4.692h2.179v1.233h-2.179v1.134l.573-.424zm-1.871.312c-.279 1.587-.866 3.572-1.662 4.592-.112-.44-.39-1.105-.614-1.53.572-.78 1.13-2.227 1.354-3.403l.922.34zM263.272 76.606h2.37v-.918h-2.37v.918zm0-1.725h2.37v-.876h-2.37v.876zm-3.501 1.725h2.258v-.918h-2.258v.918zm0-1.725h2.259v-.876h-2.259v.876zM268 79.389h-4.728v1.526h-1.243v-1.526h-4.474v-1.074h4.474v-.862h-3.416v-4.31h3.416v-.762h-3.882v-1.018h3.882v-.791h1.243v.79h4.277v1.019h-4.277v.762h3.585v4.31h-3.585v.862H268v1.074zm-10.53-9.072v3.321c0 2.19-.197 5.341-1.425 7.362-.213-.24-.762-.607-1.045-.749 1.13-1.894 1.228-4.62 1.228-6.613v-4.452h5.406c-.154-.296-.324-.579-.48-.833l1.229-.353c.268.353.522.805.691 1.186h4.827v1.131H257.47zM282.508 70.334c-.22-.216-.54-.445-.906-.673-.41.3-.847.586-1.256.787-.16-.143-.51-.473-.745-.615.41-.172.833-.402 1.197-.66a8.077 8.077 0 0 0-.919-.472l.657-.558c.306.143.657.315.978.501.249-.2.453-.43.614-.63l.92.243a6.786 6.786 0 0 1-.76.846c.35.213.659.428.891.629l-.671.602zm-4.835 2.634h2.497a4.196 4.196 0 0 0-.686-.659h-1.84l.029.66zm-1.096 2.735h-1.284v-2.735h1.108l-.262-4.238c.848-.143 2.104-.501 2.863-.73l.584.788a13.55 13.55 0 0 1-2.147.558l.044.572h2.001v.86h-1.958l.044.657h1.973v.846a8.44 8.44 0 0 0 1.226-.674 10.347 10.347 0 0 0-.95-.515l.659-.558c.32.158.686.344 1.022.543.263-.228.482-.457.658-.7l.92.285a7.46 7.46 0 0 1-.804.874c.394.258.716.501.964.73l-.686.616a6.912 6.912 0 0 0-.979-.76c-.424.33-.891.603-1.314.846h5.096c.016-.215.045-.43.074-.659h-1.943v-.874h2.001l.06-.658h-1.988v-.859h2.045l.03-.644h-2.148V68.4h3.477a129.314 129.314 0 0 1-.321 4.568h1.11v2.735h-1.345V73.97h-9.83v1.732zM288 78.323h-5.683v1.375c0 .63-.145.945-.657 1.116-.525.186-1.27.186-2.41.186a4.627 4.627 0 0 0-.438-1.13c.803.027 1.65.027 1.87.027.233 0 .307-.056.307-.243v-1.33H275v-1.09h5.989v-.515a13.86 13.86 0 0 0 1.971-.973h-5.228v-.974h6.616l.292-.071.775.687c-.847.644-1.987 1.26-3.098 1.732v.115H288v1.088zM302.994 72.935h-3.09v1.945h1.558l-.863-.267c.251-.452.544-1.171.697-1.65l1.085.31c-.306.607-.612 1.198-.863 1.607h1.476v-1.945zm-1.963-2.355a9.43 9.43 0 0 1-1.531-1.184c-.446.423-.974.832-1.518 1.184h3.049zm-4.23 9.094h5.33v-.79h-5.33v.79zm-.002-1.691h5.33v-.776h-5.33v.776zm.613-4.963c.306.478.612 1.127.71 1.55l-.919.31h1.643v-1.945h-3.021v1.945h1.337c-.098-.436-.363-1.085-.654-1.578l.904-.282zm-1.893 3.285h7.933v4.639h-1.321v-.38h-5.332V81h-1.28v-4.695zm8.56-4.23a13.605 13.605 0 0 1-2.226-1.001v.409h-4.817v-.338a14.63 14.63 0 0 1-2.018.93h9.061zm-3.688-3.666c-.07.085-.125.184-.21.268 1.295 1.213 3.648 2.284 5.819 2.749-.264.226-.626.691-.821 1.001a18.287 18.287 0 0 1-1.044-.338v3.652h-9.41v-3.554c-.347.128-.681.24-1.03.339a5.007 5.007 0 0 0-.695-1.002c2.52-.647 4.982-1.874 6.25-3.524l1.141.409z" mask="url(#d)"/></g></svg>